<?xml version="1.0" standalone="no"?>
<!DOCTYPE svg PUBLIC "-//W3C//DTD SVG 20010904//EN"
 "http://www.w3.org/TR/2001/REC-SVG-20010904/DTD/svg10.dtd">
<svg version="1.0" xmlns="http://www.w3.org/2000/svg"
 width="1200.000000pt" height="1200.000000pt" viewBox="0 0 1200.000000 1200.000000"
 preserveAspectRatio="xMidYMid meet">
<metadata>
Created by potrace 1.14, written by Peter Selinger 2001-2017
</metadata>
<g transform="translate(0.000000,1200.000000) scale(0.100000,-0.100000)"
fill="#000000" stroke="none">
<path d="M1912 8535 c-95 -44 -153 -133 -153 -234 0 -71 7 -89 137 -312 58
-101 114 -197 124 -214 9 -16 51 -88 92 -160 42 -71 85 -146 95 -165 11 -19
95 -165 188 -325 92 -159 193 -334 224 -388 31 -53 90 -156 133 -227 42 -72
74 -130 71 -130 -4 0 1 -8 9 -17 8 -10 41 -63 72 -118 31 -55 61 -107 66 -115
4 -8 27 -46 49 -83 23 -38 41 -71 41 -74 0 -4 20 -38 44 -77 23 -39 46 -78 50
-86 3 -8 14 -28 25 -45 22 -37 264 -453 299 -515 30 -55 224 -390 297 -515 49
-84 478 -827 523 -905 62 -108 252 -438 297 -515 29 -49 62 -107 74 -127 44
-78 64 -114 82 -143 11 -16 22 -37 26 -45 4 -8 32 -58 63 -110 31 -52 59 -102
63 -110 4 -8 15 -28 26 -45 10 -16 27 -46 38 -65 11 -19 71 -123 133 -230 62
-107 120 -208 130 -225 37 -66 284 -492 300 -520 10 -16 70 -122 135 -235 64
-113 131 -220 149 -238 77 -82 213 -103 312 -47 65 36 77 55 325 485 106 184
257 448 337 585 80 138 155 268 167 290 13 22 46 81 75 130 29 50 63 108 75
130 13 22 47 81 75 130 29 50 80 137 113 195 33 58 99 173 147 255 48 83 98
171 112 196 46 82 53 94 59 99 4 3 21 32 38 65 18 33 37 69 44 80 32 52 62
102 72 120 13 24 132 233 159 278 61 105 243 419 264 457 14 25 55 97 92 160
37 63 77 132 89 152 11 21 95 166 186 324 91 157 165 290 165 295 0 5 5 9 10
9 6 0 10 4 10 8 0 5 64 119 141 253 151 260 398 689 428 742 10 18 134 231
275 475 141 244 256 446 256 450 0 3 6 13 14 21 7 9 27 41 43 71 17 30 62 108
99 173 84 142 136 234 214 373 36 63 42 156 14 215 -36 80 -59 105 -129 142
l-40 22 -4045 2 -4045 3 -53 -25z m3645 -489 c-3 -8 -38 -70 -77 -137 -40 -68
-84 -144 -98 -169 -13 -25 -28 -49 -32 -55 -4 -5 -18 -30 -32 -55 -14 -25 -76
-133 -138 -240 -62 -107 -164 -285 -228 -395 -63 -110 -163 -283 -222 -385
-92 -159 -229 -397 -465 -805 -32 -55 -71 -125 -88 -155 -16 -30 -34 -61 -40
-68 -5 -7 -19 -29 -31 -50 -11 -21 -39 -70 -61 -110 -22 -40 -42 -72 -45 -72
-3 0 -32 49 -66 108 -65 114 -264 460 -439 762 -59 102 -121 210 -138 240 -16
30 -38 67 -49 82 -10 14 -18 28 -18 31 0 3 -28 54 -63 114 -107 183 -214 366
-234 403 -11 19 -31 54 -44 76 -13 23 -80 139 -149 258 -69 119 -130 224 -135
234 -6 9 -28 48 -50 87 -22 38 -45 79 -52 90 -7 11 -15 27 -20 35 -4 8 -30 54
-59 103 l-52 87 1565 0 c1336 0 1564 -2 1560 -14z m3978 -41 c-19 -30 -35 -56
-35 -59 0 -3 -38 -69 -84 -148 -46 -79 -92 -159 -103 -178 -11 -19 -63 -109
-115 -200 -53 -91 -104 -181 -115 -200 -11 -19 -34 -59 -52 -88 -17 -29 -31
-57 -31 -62 0 -6 -4 -10 -10 -10 -5 0 -10 -4 -10 -9 0 -5 -47 -90 -103 -188
-117 -201 -474 -820 -505 -873 -11 -19 -43 -75 -72 -125 -29 -49 -64 -110 -78
-135 -14 -25 -35 -61 -46 -81 -12 -20 -55 -95 -96 -167 -41 -72 -77 -132 -80
-132 -3 0 -21 28 -40 63 -19 34 -49 87 -66 117 -17 30 -89 154 -159 275 -70
121 -139 240 -153 265 -13 25 -28 50 -32 55 -4 6 -19 30 -32 55 -14 25 -49 86
-78 135 -29 50 -66 115 -83 145 -16 30 -33 60 -37 65 -4 6 -18 28 -30 50 -12
22 -89 155 -170 295 -81 140 -156 271 -167 290 -27 48 -392 678 -414 715 -10
17 -30 53 -45 80 -14 28 -35 62 -46 78 l-19 27 1570 0 1571 0 -35 -55z m-3519
-222 c6 -10 22 -38 36 -63 24 -42 91 -158 343 -595 157 -272 166 -288 161
-293 -8 -7 -1116 -8 -1116 0 0 7 14 32 185 328 65 113 121 210 125 215 4 6 21
35 38 65 16 30 62 111 102 180 41 69 80 137 88 153 16 32 23 33 38 10z m544
-1461 c0 -11 -103 -187 -112 -190 -4 -2 -8 -10 -8 -19 0 -8 -8 -27 -19 -41
-10 -15 -29 -47 -43 -72 -14 -25 -58 -101 -98 -170 -40 -69 -118 -205 -174
-302 -55 -98 -103 -177 -106 -177 -3 0 -36 55 -74 122 -38 67 -140 244 -226
392 -86 149 -168 290 -182 315 -14 25 -37 65 -52 90 -14 25 -26 48 -26 51 0 4
252 7 560 7 308 0 560 -2 560 -6z m-1542 -274 c12 -25 36 -66 127 -223 272
-468 414 -719 409 -724 -8 -8 -1114 -8 -1114 0 0 4 72 132 161 285 89 154 214
370 278 481 64 112 119 203 122 203 3 0 11 -10 17 -22z m2006 -11 c10 -17 29
-50 41 -72 12 -22 55 -96 95 -165 40 -69 83 -143 96 -165 12 -22 61 -107 109
-190 48 -82 101 -175 118 -205 17 -30 41 -72 54 -93 14 -22 21 -42 18 -45 -8
-9 -1115 -9 -1115 -1 0 3 35 66 78 140 42 74 167 291 277 482 110 191 202 347
205 347 3 0 13 -15 24 -33z m536 -1452 c0 -6 -4 -15 -9 -20 -5 -6 -69 -116
-144 -245 -127 -221 -260 -452 -435 -755 -41 -71 -86 -150 -100 -175 -25 -45
-57 -99 -79 -135 -7 -11 -30 -51 -52 -90 -23 -38 -54 -92 -71 -120 -16 -27
-33 -57 -37 -65 -5 -9 -23 -42 -42 -75 -109 -190 -243 -422 -250 -435 -14 -22
-191 -329 -212 -366 -9 -17 -34 -60 -56 -95 -21 -35 -44 -77 -52 -92 -8 -15
-17 -27 -20 -27 -3 0 -19 23 -36 52 -16 29 -42 73 -56 98 -15 25 -102 176
-194 335 -208 361 -347 602 -393 680 -19 33 -42 74 -52 90 -9 17 -120 208
-245 425 -126 217 -238 412 -249 432 -12 20 -70 121 -130 225 -60 103 -119
206 -132 228 -12 22 -33 60 -48 85 -14 25 -26 47 -26 50 0 3 702 5 1560 5
1084 0 1560 -3 1560 -10z"/>
</g>
</svg>
