<svg width="1200" height="1200" viewBox="0 0 1200 1200" fill="none" xmlns="http://www.w3.org/2000/svg">
<style>g{mix-blend-mode:screen}@media(prefers-color-scheme:light){circle{fill:#fff}g{mix-blend-mode:difference}}</style>
<circle cx="600" cy="600" r="600" fill="black"/>
<g><path d="M600 364.06H201.732C200.962 364.06 200.481 364.893 200.866 365.56L400 710.47M600 364.06H998.268C999.038 364.06 999.519 364.893 999.134 365.56L800 710.47M600 364.06L700 537.265M600 364.06L500 537.265M400 710.47L599.134 1055.38C599.519 1056.05 600.481 1056.05 600.866 1055.38L800 710.47M400 710.47H600M400 710.47L500 537.265M800 710.47H600M800 710.47L700 537.265M600 710.47L500 537.265M600 710.47L700 537.265M700 537.265H500" stroke="#0000FF" stroke-width="40" stroke-miterlimit="16"/></g>
<g><path d="M595 369.06H196.732C195.962 369.06 195.481 369.893 195.866 370.56L395 715.47M595 369.06H993.268C994.038 369.06 994.519 369.893 994.134 370.56L795 715.47M595 369.06L695 542.265M595 369.06L495 542.265M395 715.47L594.134 1060.38C594.519 1061.05 595.481 1061.05 595.866 1060.38L795 715.47M395 715.47H595M395 715.47L495 542.265M795 715.47H595M795 715.47L695 542.265M595 715.47L495 542.265M595 715.47L695 542.265M695 542.265H495" stroke="#00FF00" stroke-width="40" stroke-miterlimit="16"/></g>
<g><path d="M605 369.06H206.732C205.962 369.06 205.481 369.893 205.866 370.56L405 715.47M605 369.06H1003.27C1004.04 369.06 1004.52 369.893 1004.13 370.56L805 715.47M605 369.06L705 542.265M605 369.06L505 542.265M405 715.47L604.134 1060.38C604.519 1061.05 605.481 1061.05 605.866 1060.38L805 715.47M405 715.47H605M405 715.47L505 542.265M805 715.47H605M805 715.47L705 542.265M605 715.47L505 542.265M605 715.47L705 542.265M705 542.265H505" stroke="#FF0000" stroke-width="40" stroke-miterlimit="16"/></g>
</svg>
