<svg width="1200" height="1200" viewBox="0 0 1200 1200" fill="none" xmlns="http://www.w3.org/2000/svg">
<style>path{stroke:white}@media(prefers-color-scheme:light){path{stroke:black}}</style>
<path d="M600 369.06H201.732C200.962 369.06 200.481 369.893 200.866 370.56L400 715.47M600 369.06H998.268C999.038 369.06 999.519 369.893 999.134 370.56L800 715.47M600 369.06L700 542.265M600 369.06L500 542.265M400 715.47L599.134 1060.38C599.519 1061.05 600.481 1061.05 600.866 1060.38L800 715.47M400 715.47H600M400 715.47L500 542.265M800 715.47H600M800 715.47L700 542.265M600 715.47L500 542.265M600 715.47L700 542.265M700 542.265H500" stroke="white" stroke-width="50" stroke-miterlimit="16"/>
</svg>
