<svg width="76" height="67" viewBox="0 0 76 67" fill="none" xmlns="http://www.w3.org/2000/svg">
<path d="M38.0256 2H2.73381C1.96362 2 1.48255 2.8341 1.86823 3.50076L19.5128 34M38.0256 2H73.3175C74.0877 2 74.5687 2.8341 74.1831 3.50076L56.5385 34M38.0256 2L47.2821 18M38.0256 2L28.7692 18M19.5128 34L37.1601 64.5038C37.5452 65.1695 38.5061 65.1695 38.8912 64.5038L56.5385 34M19.5128 34H38.0256M19.5128 34L28.7692 18M56.5385 34H38.0256M56.5385 34L47.2821 18M38.0256 34L28.7692 18M38.0256 34L47.2821 18M47.2821 18H28.7692" stroke="white" stroke-width="3" stroke-miterlimit="16"/>
</svg>
