<svg version="1" xmlns="http://www.w3.org/2000/svg" width="933.333" height="933.333" viewBox="0 0 700.000000 700.000000"><path d="M328 .7c-64.1 4.8-120.2 23.7-171.5 57.8-18.9 12.6-33.2 24.2-50.4 41-40.2 39.3-68.5 83.6-86.5 135.5-30.9 88.9-24.8 186.2 16.8 270 18.3 36.6 37.4 63.1 67.5 93 57.6 57.4 126.9 90.3 210.6 100.2 14.3 1.6 56.7 1.6 71 0 57.1-6.7 105.1-23.4 151.5-52.5 44.3-27.9 85.7-70.2 112.7-115.2 52.7-87.8 64.5-193.9 32.3-290.6-18.2-54.8-46.6-100-88.6-140.9C534.2 41.3 460.5 8.2 375.5 1 364.4.1 338.4-.1 328 .7zm305.9 183.7c1.2 1.1 2.1 2.7 2.1 3.7s-56.2 98.4-124.8 216.6C442.5 522.8 379.4 631.4 371 646c-8.4 14.6-16 27.3-16.9 28.3-2.1 2.5-6.9 1.8-9.2-1.3C340 666.1 64 189.6 64 188.1c0-1.9 2.4-4.4 5-5.4.8-.3 127.8-.5 282.1-.4 274.5.2 280.7.2 282.8 2.1z"/><path d="M81.5 195.7c1 2.8 127.9 221.2 128.5 221.2.5 0 127.5-218.4 128.6-221.2.6-1.6-7.1-1.7-128.6-1.7-122.4 0-129.2.1-128.5 1.7zM361.5 195.7c1 2.9 127.9 221.2 128.5 221.2.6 0 127.5-218.4 128.6-221.2.6-1.6-6.7-1.7-128.6-1.7-122.6 0-129.2.1-128.5 1.7zM320.3 251.3C304.2 279 291 302 291 302.3c0 .4 26.6.7 59 .7 32.5 0 59-.3 59-.6 0-1-58.4-101.4-59-101.4-.3 0-13.7 22.7-29.7 50.3zM291.2 315.9c.7 2.1 58.3 101 58.8 101s58.1-98.9 58.8-101c.2-.5-22-.9-58.8-.9s-59 .4-58.8.9zM250.5 371.2c-15.9 27.5-29.1 50.4-29.3 50.9-.2.5 24.1.9 58.7.9 32.5 0 59.1-.2 59.1-.4 0-.8-57.2-99.1-58.4-100.3-.8-.8-8.4 11.5-30.1 48.9zM390.5 371.2c-15.9 27.5-29.1 50.4-29.3 50.9-.2.5 24.1.9 58.7.9 32.5 0 59.1-.2 59.1-.4 0-.8-57.2-99.1-58.4-100.3-.8-.8-8.4 11.5-30.1 48.9zM221.4 436.6c1 2.7 128.1 221.3 128.6 221.3s127.6-218.6 128.6-221.3c.6-1.5-11.3-1.6-128.6-1.6-117.1 0-129.2.1-128.6 1.6z"/></svg>